<?xml version="1.0" encoding="UTF-8"?>
<!DOCTYPE svg PUBLIC "-//W3C//DTD SVG 1.1//EN" "http://www.w3.org/Graphics/SVG/1.1/DTD/svg11.dtd">
<!-- Creator: CorelDRAW -->
<svg xmlns="http://www.w3.org/2000/svg" xml:space="preserve" width="7.21285in" height="3.38719in" style="shape-rendering:geometricPrecision; text-rendering:geometricPrecision; image-rendering:optimizeQuality; fill-rule:evenodd; clip-rule:evenodd"
viewBox="0 0 0.427811 0.200902"
 xmlns:xlink="http://www.w3.org/1999/xlink">
 <defs>
  <style type="text/css">
   <![CDATA[
    .fil0 {fill:#D70900}
   ]]>
  </style>
 </defs>
 <g id="Layer_x0020_1">
  <metadata id="CorelCorpID_0Corel-Layer"/>
  <path class="fil0" d="M0.396026 0.190105l0.000152251 -0.000152017 0 0.0053227c-0.00197716,0.00182514 -0.00304198,0.00243344 -0.00486688,0.00243344 -0.00212917,0 -0.00365005,-0.000760319 -0.00365005,-0.00319376 0,-0.00365005 0.00395431,-0.00456238 0.00608349,-0.00456238 0.000304034,0 0.00152087,0.000152017 0.00228119,0.000152017zm-0.222955 0l0 0c0.000152017,0.000152017 0.000304268,0.000152017 0.000456285,-0.000152017l0 0.00517092c-0.00167289,0.00197692 -0.00349803,0.00258523 -0.00501867,0.00258523 -0.00197716,0 -0.00349803,-0.000608302 -0.00349803,-0.00304151 0,-0.00365005 0.00365005,-0.00471463 0.00593124,-0.00471463 0.000304268,0 0.00136886,0 0.00212917,0.000152017zm-0.0194666 0.00136886l0 0c0,0.00501867 -0.0038023,0.00562697 -0.00714808,0.00562697 -0.000304268,0 -0.00182491,0 -0.00258546,-0.000152017l0 -0.0107981c0.00091257,0.000152251 0.00243344,0 0.00288973,0 0.00380206,0 0.00684381,0.000760553 0.00684381,0.00532317zm-0.0354356 -0.00714808l0 0 0 0.0115584c-0.00106459,0.0012166 -0.00288949,0.00167289 -0.00380206,0.00167289 -0.00517092,0 -0.00653977,-0.00365005 -0.00653977,-0.00745211 0,-0.00349803 0.00182514,-0.00775614 0.00638752,-0.00775614 0.00121684,0 0.00288973,0.000304034 0.00395431,0.00197692zm-0.0246375 -0.00182514l0 0c0.0012166,0.000152251 0.00365005,0.00273748 0.00365005,0.00410633l0 0.000760553 -0.0112544 0 0 -0.000456285c0.00091257,-0.00319376 0.00304174,-0.00456238 0.00577945,-0.00456238 0.000304034,0 0.0012166,0 0.00182491,0.000151784zm0.172463 0.00730009l0 0c0,0.00304174 -0.00091257,0.00775638 -0.0056272,0.00775638 -0.00486665,0 -0.00532294,-0.00486665 -0.00532294,-0.00760413 0,-0.00273771 0.000760553,-0.00775638 0.00547519,-0.00775638 0.00471463,0 0.00547495,0.00471463 0.00547495,0.00760413zm0.0930754 -0.0103416l0 0 0 0.0209875 -0.00365005 0 0 -0.017946 -0.00288973 0 0 -0.00304151 0.00653977 0zm-0.29778 0l0 0 0 0.0209875 -0.00380206 0 0 -0.017946 -0.00288949 0 0 -0.00304151 0.00669156 0zm0.251395 0.0118625l0 0 -0.00806065 0 0.00425835 -0.0120147 0.0038023 0.0120147zm0.0841022 -0.0112542l0 0c0.00197716,0.000760319 0.00334601,0.00456262 0.00334601,0.00623551l0 0.00988532c0.000152017,0.00091257 0.000456285,0.00197716 0.00167289,0.00273748l0 0.00182514 -0.00182514 0c-0.0012166,-0.000304268 -0.00304151,-0.00136886 -0.00334578,-0.00258546 -0.00106459,0.00182491 -0.00501867,0.00273748 -0.00669179,0.00273748 -0.00380183,0 -0.00608326,-0.00319376 -0.00608326,-0.00638752 0,-0.0056272 0.00608326,-0.00760413 0.0097333,-0.00760413 0.000304268,0 0.00167312,0.000304034 0.00258569,0.000456285 0.000151784,-0.000152251 0.000151784,-0.000456285 0.000151784,-0.000760553 0,-0.00334578 -0.00258523,-0.00425812 -0.0047144,-0.00425812 -0.00152087,0 -0.00380206,0.000456052 -0.00501867,0.00182491 -0.000608536,-0.00091257 -0.00167312,-0.00258546 -0.00167312,-0.00304174 0,-0.000304268 0.00136862,-0.00106459 0.00197716,-0.0012166 0.000608302,-0.000304268 0.00152087,-0.000608536 0.00258523,-0.000760319 0.000456285,-0.000152251 0.00167312,-0.000152251 0.00197716,-0.000152251 0.00167289,0 0.0038023,0.000456285 0.00532294,0.00106459zm-0.0159688 0.00106459l0 0c-0.000456285,0.000760553 -0.00106435,0.00167289 -0.00167289,0.00258546 -0.00212894,-0.00121684 -0.00319376,-0.00152087 -0.00501867,-0.00152087 -0.00532294,0 -0.00653977,0.00456262 -0.00653977,0.0079084 0,0.00441037 0.00212917,0.00760413 0.00669179,0.00760413 0.00152087,0 0.00380206,-0.00091257 0.00517092,-0.00197716l0.00152087 0.00304174c-0.0012166,0.00106459 -0.00547519,0.00212917 -0.00745234,0.00212917 -0.00395408,0 -0.00836445,-0.00243344 -0.00973307,-0.00806041 0,-0.000304268 -0.000152251,-0.000912337 -0.000152251,-0.00121684l0 -0.00288926c0.000608536,-0.00714808 0.00577922,-0.00973354 0.0106459,-0.00973354 0.00197716,0 0.00471463,0.00091257 0.00653954,0.00212917zm-0.0299605 -0.00182514l0 0 -0.00136862 0.00365005c-0.000760553,-0.000304034 -0.00228143,-0.000760319 -0.00258569,-0.000760319 -0.00243321,0 -0.00486665,0.00273748 -0.00486665,0.00486665l0 0.0133833 -0.00380183 0 0 -0.0209875 0.00380183 0c0,0.00091257 0,0.00197716 0.000152251,0.00288973 0.0012166,-0.00258569 0.00395408,-0.00334601 0.00577922,-0.00334601 0.000456052,0 0.00197716,0.000152251 0.00288949,0.000304034zm-0.0640272 0.000304268l0 0c-0.000456285,0.0012166 -0.00091257,0.00228143 -0.00136886,0.00334578 -0.000760319,-0.000304034 -0.00228119,-0.000760319 -0.00258523,-0.000760319 -0.00243344,0 -0.00486665,0.00273748 -0.00486665,0.00486665l0 0.0133833 -0.0038023 0 0 -0.0209875 0.0038023 0c0,0.00091257 0,0.00197716 0.000152017,0.00288973 0.0012166,-0.00258569 0.00395408,-0.00334601 0.00577922,-0.00334601 0.00091257,0 0.00288949,0.000608302 0.00288949,0.000608302zm-0.0168814 0.0101896l0 0c0,0.00532317 -0.00228119,0.0111022 -0.00942903,0.0111022 -0.00699606,0 -0.00958128,-0.00577899 -0.00958128,-0.0111022 0,-0.00562697 0.00319376,-0.0107979 0.00958128,-0.0107979 0.00729986,0 0.00942903,0.0056272 0.00942903,0.0107979zm-0.0751292 -0.0106456l0 0c0.00258546,0 0.0050189,0.00380183 0.0050189,0.00608302l0 0.0152085 -0.00365005 0 0 -0.0138396c-0.000152251,-0.00319376 -0.00197716,-0.00441037 -0.00425858,-0.00441037 -0.000456052,0 -0.000760319,-0.000152251 -0.000912337,0 -0.00091257,0.000152251 -0.00410633,0.00152087 -0.00410633,0.00273748l0 0.0155125 -0.00365005 0 0 -0.0209875 0.00258546 0c0.000304268,0.000760319 0.000760553,0.00167289 0.00106459,0.00243344 0.00152087,-0.00212941 0.00395408,-0.00288973 0.00608349,-0.00288973 0.000304034,0 0.0012166,0.000152251 0.00182491,0.000152251zm-0.01825 0.00395408l0 0c0.000152017,0.000760319 0.000760319,0.00197716 0.000760319,0.00243344l0 0.00988532c0.000304034,0.00091257 0.000152251,0.00258523 0.00167312,0.0034978l0 0.00182514 -0.00167312 0c-0.00106459,-0.000152017 -0.00304151,-0.00106459 -0.00334578,-0.00258546 -0.00091257,0.00182491 -0.00532294,0.00273748 -0.00684381,0.00273748 -0.00365005,0 -0.00608326,-0.00319376 -0.00608326,-0.00638752 0,-0.0056272 0.00608326,-0.00760413 0.0097333,-0.00760413 0.000304268,0 0.00182491,0.000304034 0.00273748,0.000456285 0.000152017,-0.000152251 0.000152017,-0.000152251 0.000152017,-0.000608302 0,-0.00304174 -0.00212917,-0.00441037 -0.00471463,-0.00441037 -0.00182491,0 -0.00334578,0.000304034 -0.00501867,0.00182491 -0.000760319,-0.000456285 -0.00152087,-0.00228119 -0.00182514,-0.00304174 0.00152087,-0.0012166 0.00456285,-0.00212917 0.00669179,-0.00212917 0.00212917,0 0.00669179,0.000608302 0.00775638,0.00410633zm-0.0755857 0.00486665l0 0c0,0.000304268 0,0.00152087 -0.000152017,0.00228119l-0.0152085 0 0 0.00121684c0.000304034,0.00425812 0.0034978,0.00623527 0.00669156,0.00623527 0.00167312,0 0.00319376,-0.000456285 0.00517092,-0.00182491 0.000608536,0.000760319 0.00106459,0.00167289 0.00167289,0.00258523 -0.00106435,0.00136886 -0.00577922,0.00243344 -0.00760413,0.00243344 -0.00669156,0 -0.00988532,-0.00547495 -0.00988532,-0.0107979 0,-0.0056272 0.0034978,-0.0111022 0.00988532,-0.0111022 0.0056272,0 0.00942927,0.00319376 0.00942927,0.00897298zm-0.0541419 -0.00836468l0 0c0.000456285,0.000152017 0.00167289,0.00136886 0.00212917,0.00197716 0.000152017,0 0.00136862,0.00304174 0.00136862,0.00364981l0 0.0152085 -0.00364981 0 0 -0.0138396c-0.000608302,-0.0034978 -0.00182514,-0.00441037 -0.00425835,-0.00441037 -0.00167312,0 -0.00334578,0.000608302 -0.00501867,0.00273748l0 0.0155125 -0.00365005 0 0 -0.0209875 0.00258523 0c0.000304268,0.000760319 0.000760553,0.00167289 0.00106482,0.00243344 0.00152064,-0.00212941 0.00395408,-0.00288973 0.00608326,-0.00288973 0.000304268,0 0.00228119,0.000152251 0.00334578,0.000608302zm0.105242 -0.000912337l0 0c0,0.00395408 -0.00334555,0.00441037 -0.00593124,0.00441037l-0.00228119 0 0 -0.00821266 0.00243344 0c0.00228119,0 0.00577899,0 0.00577899,0.0038023zm-0.0798438 0.000760319l0 0 0.00577922 0 0 0.00288973 -0.00577922 0 0 0.0118625c0.000760319,0.00273748 0.00182491,0.0034978 0.00364981,0.0034978 0.000456285,0 0.00212941,-0.000456285 0.00304198,-0.000760319 0.000151784,0.00106435 0.000456052,0.00228119 0.000608069,0.00334578 -0.00167289,0.000304268 -0.0047144,0.000608302 -0.00517069,0.000608302 -0.00319376,0 -0.00593124,-0.00304151 -0.00593124,-0.00593124l0 -0.0126228 -0.00243344 0 0 -0.00288973 0.00243344 0 0 -0.00441037c0.0012166,-0.000456285 0.00258546,-0.00106459 0.00380206,-0.00136886l0 0.00577922zm-0.0603772 -0.00775638l0 0 0 0.0194668c0.000608069,0.00456238 0.00304151,0.00623551 0.00608326,0.00623551 0.00258546,0 0.00501867,-0.00121684 0.00623551,-0.00471463l0 -0.0209877 0.00395408 0 0 0.021444c-0.00091257,0.00638752 -0.00623527,0.00775614 -0.0101896,0.00775614 -0.00319376,0 -0.00745211,-0.00091257 -0.00927702,-0.00501867 -0.000304268,-0.00091257 -0.000608536,-0.00243344 -0.000608536,-0.00273748l0 -0.021444 0.0038023 0zm0.347816 0.00197716l0 0c0,0.00152087 -0.00091257,0.00243321 -0.00228119,0.00243321 -0.00152087,0 -0.00228143,-0.00136862 -0.00228143,-0.00228119 0,-0.00152064 0.000760553,-0.00228119 0.00228143,-0.00228119 0.00136862,0 0.00228119,0.000760553 0.00228119,0.00212917zm-0.29778 0l0 0c0,0.00152087 -0.00136862,0.00243321 -0.00243321,0.00243321 -0.00152087,0 -0.00228143,-0.00136862 -0.00228143,-0.00228119 0,-0.00152064 0.00121684,-0.00228119 0.00228143,-0.00228119 0.00136862,0 0.00243321,0.000760553 0.00243321,0.00212917zm0.094292 0.00471463l0 0c0,0.00212917 -0.00106435,0.00425835 -0.00410633,0.00577922l-0.000151784 0.000304034c0.00441037,0.00091257 0.00608326,0.00425858 0.00608326,0.00760413 0,0.000304268 -0.000304268,0.00167312 -0.000456285,0.00243344 -0.000456285,0.00334601 -0.00577922,0.00593124 -0.00836468,0.00593124l-0.00942927 0 0 -0.0290479 0.00714808 0c0.00410633,0 0.00927702,0.0012166 0.00927702,0.00699583zm0.153301 -0.00714808l0 0 0.0109499 0.0292001 -0.00441037 0c-0.000608302,-0.00197716 -0.00136886,-0.0041061 -0.00212917,-0.00608326l-0.0103416 0c-0.00091257,0.00197716 -0.00167312,0.0041061 -0.00228143,0.00608326l-0.00441037 0c0.00380206,-0.0097333 0.00775614,-0.0194666 0.0115584,-0.0292001l0.00106459 0zm0.0260061 0.000152251l0 0c-0.000152017,0.000304034 -0.00106459,0.00273748 -0.0012166,0.00273748 -0.000456285,0 -0.00152064,-0.000304268 -0.00197692,-0.000304268 -0.00273748,0 -0.00395431,0.00243344 -0.00395431,0.00456262 0,0.000304268 0.000152017,0.000608302 0.000152017,0.00106459l0.00425858 0 0 0.00304151 -0.00425858 0 0 0.017946 -0.00365005 0 0 -0.017946 -0.00304151 0 0 -0.00304151 0.00304151 0c-0.000152017,-0.0050189 0.00243344,-0.00866871 0.00714808,-0.00866871 0.000304268,0 0.00228119,0.000304034 0.0034978,0.000608302zm-0.0856233 0l0 0 -0.000912337 0.00273748c-0.000608302,-0.000152017 -0.00167289,-0.000304268 -0.00212917,-0.000304268 -0.00167289,0 -0.00395408,0.00167312 -0.00395408,0.00349803l0 0.00212917 0.00441037 0 0 0.00304151 -0.00441037 0 0 0.017946 -0.00365005 0 0 -0.017946 -0.00304174 0 0 -0.00304151 0.00304174 0c0,-0.00517092 0.00258546,-0.00866871 0.00714784,-0.00866871 0.000456285,0 0.00243344,0.000304034 0.0034978,0.000608302zm-0.0409101 -0.000608302l0 0 0 0.0180977 0.00790816 -0.00942903 0.00441037 0 -0.00653977 0.0079084 0.00806065 0.0130791 -0.00410633 0 -0.00653931 -0.0104936c-0.00091257,0.00106459 -0.00212941,0.00228119 -0.00319376,0.00334578l0 0.00714784 -0.0038023 0 0 -0.0296562 0.0038023 0zm-0.0869921 0l0 0 0 0.0296562 -0.00365005 0c0,-0.000456285 0,-0.000912337 -0.000152017,-0.00136862 -0.00182491,0.00136862 -0.00365005,0.00167289 -0.00547495,0.00167289 -0.00669179,0 -0.00897298,-0.00562697 -0.00897298,-0.0103418 0,-0.00471463 0.00319376,-0.0114062 0.0097333,-0.0114062 0.00106459,0 0.00365005,0.000456285 0.00486665,0.00136886l0 -0.00958128 0.00365005 0zm0.0190106 -0.0717836l0 0c0.00897298,0.00197716 0.0129271,0.00699583 0.0129271,0.0139917 0,0.000304268 -0.000152017,0.00319376 -0.000608302,0.00471463 -0.000456285,0.00152087 -0.00129273,0.00286427 -0.00273748,0.00471463 -0.0044928,0.00575377 -0.0130793,0.0103416 -0.0184023,0.0103416l-0.0152085 0c0.00243344,-0.0111019 0.00456262,-0.0225083 0.00699606,-0.0334583 0,-0.000304268 0.000152017,-0.000456052 0.000456285,-0.000608302l0.0115584 -0.000304034c0.000304034,0 0.00334555,0.000304034 0.00501867,0.000608069zm0.100832 0.012775l0 0 -0.0275273 0 0.0200749 -0.0307208 0.00745234 0.0307208zm-0.085319 -0.0399978l0 0c0,0.000304034 -0.000608302,0.00319376 -0.000760553,0.00471463 -0.000304034,0.00319376 -0.00319376,0.00790816 -0.00745188,0.0104936 -0.00152087,0.00091257 -0.00775638,0.00456262 -0.00866871,0.00456262l-0.0135356 0c0.000456052,-0.00243344 0.000912337,-0.00501867 0.00136862,-0.00745211 0.000304268,-0.00152087 0.000760553,-0.00319376 0.00091257,-0.00471463 0.000304268,-0.00152087 0.000760553,-0.00319376 0.00091257,-0.00471463 0.000304268,-0.00152087 0.000760553,-0.00319376 0.000912337,-0.00471463 0.000304268,-0.00152087 0.000431066,-0.00235732 0.000760553,-0.00471463 0.000329487,-0.00271226 0.000126798,-0.00281337 0.00167289,-0.00273748l0.0114064 -0.000304034c0.00486642,0 0.0124708,0.00258523 0.0124708,0.00958128zm0.0903377 -0.021596l0 0 0.0228126 0.0938357 -0.0205314 0 -0.00365005 -0.0184023 -0.0396935 0 -0.012167 0.0184023 -0.0170332 0 0.063571 -0.0938357 0.00669156 0zm-0.0907939 0l0 0c0.0136876,0.00152087 0.0200751,0.0079084 0.0200751,0.0185543 0,0.0114064 -0.0079084,0.0199229 -0.021748,0.0244855 0.000152017,0.000152017 0.000456285,0.000152017 0.000608302,0.000152017 0.0101896,0.00152087 0.0174897,0.00745188 0.0174897,0.0167291 0,0.0147522 -0.009125,0.0284396 -0.0288959,0.03285 -0.00091257,0.000152251 -0.00699606,0.00136886 -0.009125,0.00136886l-0.0387814 0 0.0196189 -0.0941397 0.0407583 0zm-0.123644 0l0 0c-0.00152087,0.00806041 -0.00319376,0.0156645 -0.00471463,0.0232687 -0.0012166,0.0056272 -0.00243344,0.0115584 -0.0034978,0.0173377 -0.00152087,0.0085167 -0.00395431,0.0167291 -0.00395431,0.0252458 0,0.00927725 0.00304174,0.0176417 0.0150562,0.0176417 0.0115584,0 0.0229649,-0.00760413 0.0266147,-0.0231167 0.00471487,-0.0200749 0.00866895,-0.0403023 0.0129273,-0.0603772l0.0173374 0 0 0.000456285c-0.00486665,0.0220521 -0.00942927,0.0441044 -0.0144479,0.0660042 -0.00266135,0.0069197 -0.00384013,0.00802235 -0.00593124,0.0107979 -0.009125,0.012623 -0.0212917,0.0167291 -0.0317856,0.017946 -0.0012166,0.000152017 -0.00334578,0.000456285 -0.00380206,0.000456285l-0.00927702 0c-0.00182491,-0.000152017 -0.00380206,-0.000456285 -0.00547495,-0.000760553 -0.00167312,-0.000304034 -0.00349803,-0.000760319 -0.00517092,-0.0012166 -0.0117105,-0.00288973 -0.0162731,-0.0141437 -0.0162731,-0.0225083l0 -0.00365005c0.000152017,-0.00106459 0.000152017,-0.00228143 0.000304268,-0.00349803 0.00441037,-0.0212915 0.00882097,-0.0427353 0.0132313,-0.064027l0.0188583 0zm0.31527 0.0932272l0 0c-0.00243344,0.000304268 -0.00714784,0.00091257 -0.00760413,0.00091257l-0.0378689 0 0.0255501 -0.119994c0.0133833,0.0261584 0.0267667,0.0526211 0.039998,0.0790833 0.00228119,0.00577922 0.00441037,0.0120145 0.00441037,0.017946 0,0.0132311 -0.00927702,0.0196186 -0.0244855,0.0220521zm0.0801481 -0.143415l0 0 -0.0257019 0.119994c-0.00775638,-0.0150562 -0.0155125,-0.0302645 -0.0231169,-0.0453207 -0.00425835,-0.00836468 -0.0085167,-0.0170334 -0.012775,-0.0252458 -0.00136886,-0.00288973 -0.00288949,-0.00547519 -0.00410633,-0.00821266 -0.00136862,-0.00304151 -0.00441037,-0.0123188 -0.00441037,-0.0167291l0 -0.00319376c0.000152251,-0.00152087 0.000304034,-0.00334578 0.000760319,-0.00471463 0.00456262,-0.0144479 0.0214438,-0.0158166 0.0314813,-0.0165771l0.0378689 0z"/>
 </g>
</svg>
